<svg xmlns="http://www.w3.org/2000/svg" viewBox="0 0 260 50"><path fill="#E65238" d="M168.1 48.5c6.7 0 11-6.8 11-23.5 0-16.2-3.5-23.6-11.1-23.6-7.1 0-11.8 8.6-11.8 23.6 0 16 5.1 23.5 11.9 23.5m-40.8 0c6.7 0 11-6.8 11-23.5 0-16.2-3.5-23.6-11.1-23.6-7.1 0-11.8 8.6-11.8 23.6 0 16 5.1 23.5 11.9 23.5m15.1-.4h15.1v-2.4h-8.9V1.6h-6.2v46.5zm79.8 0h15.1v-2.4h-8.9v-23h8v-2.3h-8V4.1h8.6V1.7h-14.8v46.4zm-11.3 0h6.2V1.7h-6.2v46.4zm-152.3 0v-18L66 1.6h-2.6l-6.2 24.3-6.4-24.3h-6.4l8 28.5v18h6.2zm-50-19.6c9 0 13.4-5.3 13.4-13.4 0-8-4.4-13.4-13.4-13.4H2v46.4h6.2V28.5h.4zm168-3.6c0 14.5-3.5 20.9-7.7 20.9-3 0-6.2-3.5-6.2-20.8 0-18.1 2.7-20.9 6.2-20.9 4.7 0 7.7 6.4 7.7 20.8m-40.8 0c0 14.5-3.5 20.9-7.7 20.9-3 0-6.2-3.5-6.2-20.8 0-18.1 2.7-20.9 6.2-20.9 4.7 0 7.7 6.4 7.7 20.8m-63.2.4c0-16.7 2-21.2 6.6-21.2 4.2 0 6.3 4.6 6.3 13.7H88c.1-11.4-2.9-16.3-9.5-16.3-7.7 0-12.3 8.7-12.3 23.9 0 15.8 5 23.2 12.4 23.2 6.5 0 10-5.3 9.9-17.6H86c0 10-2.5 14.9-6.7 14.9-4.1-.1-6.7-3.5-6.7-20.6M9.1 4.1c7.1 0 10.5 4.1 10.5 11s-3.4 11-10.5 11h-.9v-22h.9zm100.4 44h2.5V1.7h-2.5v20.2H97.7V1.7h-6.2v46.4h6.2V24.2h11.8v23.9zM30.4 9.5c0-3.5 1.7-5.4 4.6-5.4 4 0 5.9 4 5.9 11.8h2.5c.1-10.1-2.8-14.5-9.3-14.5-5.4 0-9.3 3.9-9.3 10.3 0 12.5 13.6 15.3 13.6 28.2 0 4-2.2 6-5.9 5.9-4.5-.1-7.6-3.5-7.6-12.4h-2.5c-.1 10.5 3.9 15.1 10.5 15.1 6.8 0 11.1-4.3 11.1-11.3 0-11.4-13.6-16.6-13.6-27.7m214.1-.1c0-3.5 1.7-5.3 4.7-5.3 4.1 0 6.1 4 6.1 11.8h2.5c.1-10.1-2.8-14.5-9.5-14.5-5.5 0-9.4 3.9-9.4 10.3 0 12.8 13.6 15.6 13.6 28.7 0 3-1.7 5.4-5.3 5.4-4.2 0-7.1-3.5-7.1-12.4h-2.5c-.1 10.5 3.6 15 9.8 15.1 6.6.1 10.6-4.1 10.6-10.9.1-11.6-13.5-17-13.5-28.2m-43.9 38.7h5.3V26.5h-11.4v2.4h5.2v8.2c0 6.5-2 8.7-4.7 8.7-3.8 0-5.7-3.4-5.7-20.5 0-16.7 2.2-21.2 7.2-21.2 4 0 5.9 4.6 5.9 13.7h2.5c.1-11.4-2.8-16.3-9.2-16.3-8 0-12.9 8.7-12.9 23.9 0 15.8 4.5 23.2 11.5 23.2 2.4 0 5-.9 6-4.3l.3 3.8z"/></svg>
